<svg xmlns="http://www.w3.org/2000/svg" width="512" height="512" fill="none" viewBox="0 0 60 60"><linearGradient id="a" x1="30" x2="30" y1="3" y2="57" gradientUnits="userSpaceOnUse"><stop offset="0" stop-color="#ce9ffc"/><stop offset="1" stop-color="#7367f0"/></linearGradient><path fill="url(#a)" d="M51 14c-12.467-.005-18.034-7.609-19.551-10.17a1.68 1.68 0 0 0-2.898 0C27.034 6.391 21.467 13.995 9 14a2 2 0 0 0-2 2v11c0 19.096 16.575 27.645 20.951 29.568a5.08 5.08 0 0 0 4.098 0C36.425 54.645 53 46.096 53 27V16a2 2 0 0 0-2-2"/><circle cx="30" cy="30" r="12" stroke="#fff" stroke-width="2.5"/><path stroke="#fff" stroke-linecap="round" stroke-width="2.5" d="M30 22v16m-8-8h16"/></svg>