<svg xmlns="http://www.w3.org/2000/svg" width="512" height="512" fill="none" viewBox="0 0 24 24"><defs><linearGradient id="a" x1="12" x2="12" y1="0" y2="24" gradientUnits="userSpaceOnUse"><stop offset="0" stop-color="#ce9ffc"/><stop offset="1" stop-color="#7367f0"/></linearGradient></defs><g fill="url(#a)"><path fill-rule="evenodd" d="M21.48 5.859a1 1 0 0 0-.861-.85q-.194-.027-.387-.058a26 26 0 0 1-1.001-.177c-.817-.162-1.803-.398-2.595-.706-1.433-.557-2.82-1.244-4.183-1.954a1.01 1.01 0 0 0-.958.017c-1.281.717-2.598 1.405-3.968 1.937-.785.305-1.812.542-2.677.704a28 28 0 0 1-1.48.235 1 1 0 0 0-.87.852c-.522 3.654-.108 6.944 1.414 9.71 1.526 2.772 4.103 4.907 7.702 6.358a1 1 0 0 0 .748 0c3.598-1.45 6.176-3.586 7.701-6.358 1.523-2.766 1.937-6.056 1.415-9.71M8 10a4 4 0 1 1 8 0 4 4 0 0 1-8 0m.397 7.481c.746-.323 1.868-.48 3.603-.48 1.775 0 2.908.153 3.654.48a1 1 0 0 0 .8-1.834C15.304 15.145 13.814 15 12 15c-1.788 0-3.256.152-4.397.646a1 1 0 1 0 .794 1.835" clip-rule="evenodd"/><path d="M12 8a2 2 0 1 0 0 4 2 2 0 0 0 0-4"/></g></svg>