<svg xmlns="http://www.w3.org/2000/svg" width="512" height="512" fill="none" viewBox="0 0 60 60"><defs><linearGradient id="a" x1="30" x2="30" y1="4" y2="57" gradientUnits="userSpaceOnUse"><stop offset="0" stop-color="#ce9ffc"/><stop offset="1" stop-color="#7367f0"/></linearGradient><mask id="b"><path fill="#fff" d="M0 0h60v60H0z"/><path stroke="#000" stroke-linecap="round" stroke-linejoin="round" stroke-width="3.5" d="m18 27 6 6-6 6m11 2 6-16m3 14h6"/></mask></defs><path fill="url(#a)" d="M51 15c-12.467-.005-18.034-7.609-19.551-10.17a1.68 1.68 0 0 0-2.898 0C27.034 7.391 21.467 14.995 9 15a2 2 0 0 0-2 2v10c0 19.096 16.575 27.645 20.951 29.568a5.08 5.08 0 0 0 4.098 0C36.425 54.645 53 46.096 53 27V17a2 2 0 0 0-2-2" mask="url(#b)"/></svg>