<svg xmlns="http://www.w3.org/2000/svg" width="512" height="512" viewBox="0 0 60 60"><defs><linearGradient id="a" x1="30" x2="30" y1="3" y2="57" gradientUnits="userSpaceOnUse"><stop offset="0" stop-color="#ce9ffc"/><stop offset="1" stop-color="#7367f0"/></linearGradient><mask id="b" maskUnits="userSpaceOnUse"><path fill="#fff" d="M0 0h60v60H0z"/><path d="M21 20h13.5l4.5 4.5V43H21zm13 1v4h4z"/></mask></defs><path fill="url(#a)" d="M51 14c-12.467-.005-18.034-7.609-19.551-10.17a1.68 1.68 0 0 0-2.898 0C27.034 6.391 21.467 13.995 9 14a2 2 0 0 0-2 2v11c0 19.096 16.575 27.645 20.951 29.568a5.08 5.08 0 0 0 4.098 0C36.425 54.645 53 46.096 53 27V16a2 2 0 0 0-2-2" mask="url(#b)"/><rect width="10" height="1.6" x="25" y="29" fill="url(#a)" rx=".8"/><rect width="10" height="1.6" x="25" y="33" fill="url(#a)" rx=".8"/><rect width="10" height="1.6" x="25" y="37" fill="url(#a)" rx=".8"/></svg>