<svg fill="none" height="512" viewBox="0 0 24 24" width="512" xmlns="http://www.w3.org/2000/svg">

<defs>
<linearGradient id="shieldGrad" x1="12" x2="12" y1="0" y2="24" gradientUnits="userSpaceOnUse">
<stop offset="0" stop-color="#ce9ffc"/>
<stop offset="1" stop-color="#7367f0"/>
</linearGradient>
</defs>

<g fill="url(#shieldGrad)">
<path clip-rule="evenodd" fill-rule="evenodd"
d="m21.4799 5.85869c-.0636-.44454-.4156-.79223-.8609-.85021-.1291-.01709-.258-.03676-.3867-.05701-.1492-.02345-.3347-.0541-.5461-.09205-.1413-.02533-.2941-.05391-.4552-.08577-.8166-.16138-1.8033-.398-2.5951-.70567-1.4325-.55654-2.8205-1.24382-4.1825-1.95401-.2997-.15667-.6642-.14853-.9582.01704-1.2814.71707-2.5981 1.40478-3.96785 1.93697-.78552.30513-1.81213.54173-2.67712.70379-.42542.07971-.79847.13899-1.06458.17825-.13855.02045-.27722.04026-.41614.05736-.44909.05446-.80566.40354-.86963.85131-.52197 3.65448-.10803 6.94411 1.41443 9.71021 1.52539 2.7718 4.10315 4.9073 7.70139 6.3586.1232.0497.2538.0739.3842.0726.1237-.0013.2472-.0255.364-.0726 3.5984-1.4513 6.176-3.5868 7.7015-6.3586 1.5224-2.766 1.9366-6.05573 1.4145-9.71021zm-13.48002 4.14141c0-2.20918 1.79087-4.00004 4.00002-4.00004 2.2091 0 4 1.79086 4 4.00004 0 2.2091-1.7909 4-4 4-2.20915 0-4.00002-1.7909-4.00002-4zm.39715 7.4813c.74618-.3229 1.86837-.4813 3.60287-.4813 1.7753 0 2.9078.1542 3.6538.48.5061.221 1.0956-.0101 1.3166-.5162.2211-.5061-.01-1.0956-.5161-1.3167-1.15-.5022-2.6397-.6471-4.4543-.6471-1.7877 0-3.25618.1521-4.39716.6458-.50687.2193-.73995.808-.52061 1.3149s.80804.7399 1.3149.5206z"/>

<path d="m12 8c-1.1046 0-2 .89543-2 2 0 1.1046.8954 2 2 2s2-.8954 2-2c0-1.10457-.8954-2-2-2z"/>
</g>

</svg>
