<svg viewBox="0 0 180 280" xmlns="http://www.w3.org/2000/svg" font-family="monospace">
  <defs>
    <linearGradient id="vg-logo-grad" gradientUnits="userSpaceOnUse" x1="30" x2="30" y1="3" y2="57">
      <stop offset="0" stop-color="#ce9ffc"/>
      <stop offset="1" stop-color="#7367f0"/>
    </linearGradient>
    <style>
      .bg  { fill: var(--color-background-secondary, #f4f4f6) }
      .bg2 { fill: var(--color-background-primary, #ffffff) }
      .t1  { fill: var(--color-text-primary, #111) }
      .t2  { fill: var(--color-text-secondary, #555) }
      .t3  { fill: var(--color-text-tertiary, #999) }
    </style>
  </defs>

  <rect x="0" y="0" width="180" height="280" rx="10" class="bg" stroke-width="0.5" stroke="var(--color-border-tertiary,rgba(0,0,0,0.12))"/>
  <rect x="0" y="0" width="180" height="3" rx="2" fill="#7367f0"/>

  <!-- logo top-right -->
  <g transform="translate(146, 10) scale(0.367)">
    <path d="m51 14c-12.467-.005-18.034-7.609-19.551-10.17-.304-.514-.851-.83-1.449-.83s-1.144.316-1.449.83c-1.517 2.561-7.084 10.165-19.551 10.17-1.104 0-2 .896-2 2v11c0 19.096 16.575 27.645 20.951 29.568.649.285 1.341.432 2.049.432s1.4-.147 2.049-.432c4.376-1.923 20.951-10.472 20.951-29.568v-11c0-1.104-.896-2-2-2zm-24 27.828-11.914-11.914 2.828-2.828 9.086 9.086 15.086-15.086 2.828 2.828z" fill="url(#vg-logo-grad)"/>
  </g>

  <text x="14" y="24" font-size="7" letter-spacing="1" class="t3">VENDORGUARD · TPRM</text>
  <text x="14" y="54" font-size="30" font-weight="700" class="t1">34</text>
  <text x="14" y="68" font-size="8" class="t2">vendors tracked</text>

  <text x="14" y="88" font-size="7" letter-spacing="1" class="t3">RISK SCORES</text>

  <!-- vendor rows -->
  <rect x="14" y="93" width="152" height="13" rx="3" class="bg2" stroke-width="0.5" stroke="var(--color-border-tertiary,rgba(0,0,0,0.12))"/>
  <text x="20" y="103" font-size="7.5" class="t2">Cloudflare Inc.</text>
  <rect x="130" y="95" width="32" height="9" rx="2" fill="rgba(94,202,165,0.15)"/>
  <text x="134" y="103" font-size="7" fill="#5ecaa5">92 · OK</text>

  <rect x="14" y="109" width="152" height="13" rx="3" class="bg2" stroke-width="0.5" stroke="var(--color-border-tertiary,rgba(0,0,0,0.12))"/>
  <text x="20" y="119" font-size="7.5" class="t2">Stripe Payments</text>
  <rect x="130" y="111" width="32" height="9" rx="2" fill="rgba(94,202,165,0.15)"/>
  <text x="134" y="119" font-size="7" fill="#5ecaa5">88 · OK</text>

  <rect x="14" y="125" width="152" height="13" rx="3" class="bg2" stroke-width="0.5" stroke="var(--color-border-tertiary,rgba(0,0,0,0.12))"/>
  <text x="20" y="135" font-size="7.5" class="t2">DataSync Corp.</text>
  <rect x="126" y="127" width="36" height="9" rx="2" fill="rgba(240,163,80,0.15)"/>
  <text x="130" y="135" font-size="7" fill="#f0a350">61 · REV</text>

  <rect x="14" y="141" width="152" height="13" rx="3" class="bg2" stroke-width="0.5" stroke="var(--color-border-tertiary,rgba(0,0,0,0.12))"/>
  <text x="20" y="151" font-size="7.5" class="t2">LegacyHost LLC</text>
  <rect x="126" y="143" width="36" height="9" rx="2" fill="rgba(224,92,122,0.15)"/>
  <text x="128" y="151" font-size="7" fill="#e05c7a">34 · RISK</text>

  <rect x="14" y="157" width="152" height="13" rx="3" class="bg2" stroke-width="0.5" stroke="var(--color-border-tertiary,rgba(0,0,0,0.12))"/>
  <text x="20" y="167" font-size="7.5" class="t2">OldVPN Systems</text>
  <rect x="126" y="159" width="36" height="9" rx="2" fill="rgba(224,92,122,0.15)"/>
  <text x="128" y="167" font-size="7" fill="#e05c7a">28 · RISK</text>

  <line x1="14" y1="180" x2="166" y2="180" stroke="var(--color-border-tertiary,rgba(0,0,0,0.12))" stroke-width="0.5"/>

  <text x="14" y="193" font-size="7" letter-spacing="1" class="t3">ASSESSMENT PIPELINE</text>

  <text x="14" y="208" font-size="7.5" class="t2">Approved</text>
  <rect x="14" y="211" width="152" height="6" rx="2" class="bg2" stroke-width="0.5" stroke="var(--color-border-tertiary,rgba(0,0,0,0.12))"/>
  <rect x="14" y="211" width="122" height="6" rx="2" fill="#5ecaa5" opacity="0.6"/>
  <text x="168" y="217" font-size="7" fill="#5ecaa5" text-anchor="end">80%</text>

  <text x="14" y="228" font-size="7.5" class="t2">In Review</text>
  <rect x="14" y="231" width="152" height="6" rx="2" class="bg2" stroke-width="0.5" stroke="var(--color-border-tertiary,rgba(0,0,0,0.12))"/>
  <rect x="14" y="231" width="30" height="6" rx="2" fill="#f0a350" opacity="0.6"/>
  <text x="168" y="237" font-size="7" fill="#f0a350" text-anchor="end">20%</text>

  <text x="14" y="248" font-size="7.5" class="t2">High Risk</text>
  <rect x="14" y="251" width="152" height="6" rx="2" class="bg2" stroke-width="0.5" stroke="var(--color-border-tertiary,rgba(0,0,0,0.12))"/>
  <rect x="14" y="251" width="9" height="6" rx="2" fill="#e05c7a" opacity="0.6"/>
  <text x="168" y="257" font-size="7" fill="#e05c7a" text-anchor="end">3</text>

  <text x="14" y="272" font-size="7" class="t3">Next review cycle: 12 days</text>
</svg>
