<svg fill="none" height="512" viewBox="0 0 24 24" width="512" xmlns="http://www.w3.org/2000/svg" xmlns:xlink="http://www.w3.org/1999/xlink"><linearGradient id="paint0_linear_16_2278" gradientUnits="userSpaceOnUse" x1="12" x2="12" y1="0" y2="24"><stop offset="0" stop-color="#ce9ffc"/><stop offset=".979167" stop-color="#7367f0"/></linearGradient><path d="m21 7v13.993c.0009.1313-.024.2615-.0734.3832s-.1223.2325-.2145.326-.202.1679-.3229.219c-.121.0511-.2509.0779-.3822.0788h-16.014c-.26319 0-.51561-.1045-.7018-.2905-.1862-.186-.29093-.4383-.2912-.7015v-18.016c0-.537.447-.992.998-.992h11.999zm-13 1v5.6c0 .85.446 1.643 1.187 2.114l2.813 1.786 2.813-1.786c.3603-.2234.6581-.5345.8657-.9042.2075-.3696.3181-.7859.3213-1.2098v-5.6zm2 2h4v3.6c0 .158-.09.318-.26.426l-1.74 1.104-1.74-1.105c-.17-.108-.26-.268-.26-.426z" fill="url(#paint0_linear_16_2278)"/></svg>